<?xml version="1.0" standalone="yes"?>
<svg xmlns="http://www.w3.org/2000/svg" width="776" height="776">
<path style="fill:#f7f2f0; stroke:none;" d="M0 0L0 776L776 776L776 0L0 0z"/>
<path style="fill:#cc9397; stroke:none;" d="M466 326C455.529 327.573 440.896 320.064 430 318.576C426.568 318.108 420.52 316.619 417.318 318.349C414.656 319.787 415.018 323.443 415.001 326C414.964 331.391 412.257 348.402 417.318 351.567C421.346 354.087 427.471 353.687 432 354.668C440.472 356.503 449.156 359.347 457 363.039C468.321 368.368 482.008 375.699 489.501 386C499.178 399.303 503.909 419.725 510 435C513.196 443.014 516.376 451.108 519.862 459C521.204 462.039 524.41 466.36 523.292 469.852C521.28 476.132 505.854 472.19 501 472.615C480.523 474.407 459.187 473.229 438.715 472.13C433.675 471.86 420.622 469.764 417.318 474.514C414.457 478.627 416.399 485.464 416.83 490C417.532 497.371 416.002 504.637 416 512C415.999 515.065 414.982 520.557 418.318 522.258C425.803 526.074 441.643 523 450 523C477.276 523 508.083 518.94 534.999 523.148C547.607 525.12 543.766 544.489 553.133 549.976C558.455 553.094 567.09 552 573 552C588.276 552 603.842 552.916 619 551C618.175 535.097 606.102 516.644 600.012 502C585.748 467.705 571.802 433.264 557.424 399C510.914 288.164 464.621 177.199 419 66C412.976 67.9992 415 76.7495 415 82L415 129C415 141.348 416.5 153.681 415.961 166C415.408 178.612 413.057 192.507 415.888 205C418.926 218.404 426.422 229.526 431.716 242C443.427 269.596 456.344 297.643 466 326z"/>
<path style="fill:#f42b0f; stroke:none;" d="M418 70L418 164C418 179.954 415.202 198.79 420.606 214C423.723 222.775 429.23 230.418 432.771 239C443.912 266.002 455.203 292.986 466.214 320C467.789 323.866 466.457 328.069 468.009 331.715C473.078 343.619 478.579 355.386 482.299 367.791C483.619 372.195 486.206 373.948 486 379C495.522 387.533 497.406 400.932 502.654 412C509.599 426.647 514.616 442.153 521.086 457C522.876 461.106 528.23 468.44 524.512 472.682C519.707 478.166 504.516 474 498 474L440 474C435.128 474 423.404 471.863 419.742 475.603C415.666 479.768 418 492.564 418 498C418 503.278 415.651 516.133 419.028 520.397C422.778 525.132 443.199 522 449 522L509 522C517.919 522 529.344 520.085 537.985 522.318C550.506 525.553 545.596 548.449 560.001 549.895C573.724 551.273 588.205 550 602 550C605.371 550 614.772 551.684 615.382 546.852C616.688 536.507 605.602 519.329 601.475 510C589.524 482.979 578.341 455.386 567.256 428C533.385 344.321 497.67 261.477 463.511 178C454.496 155.971 444.955 134.125 436.173 112C430.747 98.3295 426.637 82.0696 418 70z"/>
<path style="fill:#cc9397; stroke:none;" d="M361 72L312.575 188L189.905 482L120.579 647L98.7191 699L87 728C90.4901 725.278 91.975 719.943 93.9167 716C99.4664 704.731 103.428 692.715 108.648 681.286C127.511 639.987 143.891 597.03 161.114 555C205.145 447.553 252.924 341.887 295.914 234C309.536 199.812 323.981 165.945 338.186 132C345.388 114.788 350.537 92.824 362 78L362 161C362 174.529 363.893 189.669 361.536 203C357.377 226.53 343.686 251.21 334.07 273C326.769 289.544 321.016 306.732 313.084 323C311.308 326.642 305.146 337.609 308.043 341.392C311.04 345.305 318.288 339.235 321 337.58C333.554 329.92 347.886 325.744 362 322C363.351 329.28 366.131 347.434 361.142 353.567C357.081 358.56 344.856 359.677 339 362.345C327.298 367.678 316.909 376.489 306.985 384.518C284.544 402.674 262.938 437.111 258.39 466C256.578 477.512 273.904 474 281 474L336 474C342.338 474 353.268 471.924 358.852 475.318C365.824 479.556 362.003 503.575 362 511C361.998 514.499 362.776 519.683 358.852 521.397C351.492 524.61 337.998 522 330 522L278 522C269.678 522 261.179 520.482 253 522C253 595.674 307.892 669.686 382 681.675C406.831 685.692 433.835 680.523 457 671.907C477.909 664.131 496.239 649.042 510.08 632C514.096 627.056 520.452 611.435 528.004 613.024C532.706 614.013 550.05 621.231 551.172 626.133C552.234 630.774 545.765 638.44 543.279 642C533.389 656.16 520.783 668.271 507 678.625C482.049 697.369 447.291 711.392 416 713.907C399.774 715.211 383.962 712.044 368 712L368 713C384.878 713.736 401.909 716.656 419 714.826C451.536 711.343 484.845 697.664 511 678.241C524.799 667.994 536.833 655.309 546.326 641C548.831 637.225 554.553 630.003 553.211 625.13C551.725 619.729 533.274 611.931 528.001 610.657C520.52 608.848 516.977 619.075 513.641 624C504.057 638.149 491.036 651.356 476 659.688C464.128 666.265 452.215 672.739 439 676.244C380.362 691.797 324.174 667.465 288.239 620C280.638 609.96 274.624 598.449 269.463 587C262.896 572.433 257.417 555.963 255.925 540C255.549 535.977 252.621 527.939 255.757 524.603C260.383 519.682 280.482 523 287 523L341 523C345.897 523 357.418 525.124 361.397 521.972C364.073 519.853 363 513.98 363 511C363 500.129 364.654 487.77 362.852 477.055C361.619 469.723 349.358 472 344 472C323.603 472 303.417 473 283 473C277.859 473 261.748 475.152 260.734 467.944C259.458 458.879 267.828 443.925 271.752 436C286.133 406.958 306.409 384.509 334 367.424C342.169 362.366 354.245 361.542 361.566 356.012C366.883 351.997 364.041 335.062 363.999 329C363.98 326.236 364.363 322.118 360.852 321.411C342.852 317.789 325.571 340.602 309 340L348.011 245L362.331 209L363 163L363 72L361 72z"/>
<path style="fill:#433580; stroke:none;" d="M420 75L421 76L420 75z"/>
<path style="fill:#f42b0f; stroke:none;" d="M361 78L342.349 121L303.858 214L185.961 496L119.772 654L97.1381 708L89 728C104.166 726.971 119.783 728 135 728C139.961 728 149.296 729.782 153.585 726.972C158.087 724.023 159.237 715.662 161.145 711C166.477 697.971 172.094 685.102 177.258 672C191.892 634.866 207.511 598.086 224.046 561.911C229.145 550.756 231.477 537.287 238.424 527.059C243.61 519.423 260.869 521.899 269 521.996C291.326 522.262 313.672 522 336 522C341.657 522 355.85 524.573 360.397 520.972C364.749 517.525 362 500.239 362 495C362 490.309 364.014 479.435 360.397 475.894C356.468 472.048 346.056 474 341 474L287 474C280.14 474 260.77 477.509 258.438 468.981C256.184 460.742 263.391 451.249 266.395 444C272.549 429.154 277.308 413.708 283.515 399.09C287.008 390.862 293.823 381.187 293 372C298.066 370.219 301.475 357.234 302 352L305 352C306.481 333.866 316.297 317.44 323.279 301C334.7 274.11 347.803 246.571 357.254 219C366.645 191.603 362 158.699 362 130L362 95C362 89.6497 363.085 82.9691 361 78z"/>
<path style="fill:#433580; stroke:none;" d="M417 351L442 356L442 355C436.801 352.997 424.18 352.62 420.858 348.566C414.937 341.34 415.879 320.364 427 320C412.035 313.723 417 342.648 417 351z"/>
<path style="fill:#1d39b7; stroke:none;" d="M476 370L471 347C466.031 344.287 466.043 339.204 466 334C454.395 327.811 437.777 317.608 423.109 320.148C415.403 321.482 416.569 344.804 420.858 349.258C423.83 352.343 431.93 351.65 436 353.09C445.167 356.33 455.173 358.122 463.91 362.414C468.399 364.62 471.001 368.637 476 370z"/>
<path style="fill:#433580; stroke:none;" d="M431 320L431 321L437 322L431 320M346 326L346 327C349.899 326.997 356.374 325.463 359.682 327.897C364.626 331.535 362 346.444 362 352L363 352L362 322L346 326M437 322L437 323L448 324L437 322M448 324L448 325L457 327L448 324z"/>
<path style="fill:#1d39b7; stroke:none;" d="M312 344C311.25 347.793 311.021 350.918 307 352C306.637 356.406 306.05 359.788 302 362L292 399L321.174 372.37L362 353L360.972 328.515L349 327.029L312 344z"/>
<path style="fill:#433580; stroke:none;" d="M335 330L335 331L345 328L335 330M457.667 327.333L458.333 327.667L457.667 327.333M460.667 328.333L461.333 328.667L460.667 328.333M462 329L466 334C466.014 339.039 465.43 345.169 471 347C471.372 355.5 478.567 362.785 474 371L486 379L482.299 366.896L467 329L462 329M333.667 331.333L334.333 331.667L333.667 331.333M331.667 332.333L332.333 332.667L331.667 332.333M329.667 333.333L330.333 333.667L329.667 333.333M321 337L321 338L329 335L321 337M319.667 338.333L320.333 338.667L319.667 338.333M317 339L318 340L317 339M316 340L317 341L316 340M307 342L305 352L302 352C301.05 357.498 297.794 369.199 293 372L273 428L274 428L291.107 401.715L292.728 391L302 362C306.62 360.481 306.807 356.425 307 352L310 353L312 344L316 341L307 342M357 356L362 353L357 356M350 357L350 358L355 357L350 357M444 356L444 357L447 357L444 356M447.667 357.333L448.333 357.667L447.667 357.333M343 361L350 359L343 361M449 358L449 359L458 361L449 358M332 366L341 362C337.163 360.951 334.445 363.158 332 366M458 361L458 362L472 369C468.124 364.068 464.293 361.519 458 361M329 368L332 366L329 368M328 368L329 369L328 368M326 369L327 370L326 369M472 369L473 370L472 369M324.667 370.333L325.333 370.667L324.667 370.333M319 375L324 372L319 375M315 378L319 375L315 378M314 378L315 379L314 378M312.667 379.333L313.333 379.667L312.667 379.333M311 380L305 386L311 380M302 389L305 386L302 389M301 389L302 390L301 389M300 390L301 391L300 390M299 391L300 392L299 391M298.333 392.667L298.667 393.333L298.333 392.667M296 394L296 396L298 394L296 394M295 396L296 397L295 396M294 397L295 398L294 397M293 398L294 399L293 398z"/>
<path style="fill:#1d39b7; stroke:none;" d="M288 400L289 401L288 400z"/>
<path style="fill:#433580; stroke:none;" d="M269 435L270 436L269 435M264 447L263 450L264 447M261 455L258 465L259 465L261 455M230 586L231 586L228.275 569L231 556L234 556L236 543L237 543L238 545L240 533L253 533L257 557L258 557L253 523C249.342 523 243.66 521.949 240.46 524.028C233.234 528.722 232.128 542.792 229.028 550C227.092 554.5 223.666 558.825 223.65 564C223.628 570.834 228.445 579.2 230 586z"/>
<path style="fill:#1d39b7; stroke:none;" d="M240 533L238 545L237 543L236 543L234 556L231 556C230.487 561.117 227.766 565.777 228.188 571C230.652 601.455 254.133 634.741 274.845 655.71C293.409 674.504 313.485 691.385 338.285 701.606C393.902 724.526 462.373 712.628 509.155 675.831C526.154 662.46 543.017 646.578 551 626C544.534 622.645 533.939 612.624 526.17 614.319C517.712 616.164 509.564 634.468 503.829 640.866C491.174 654.985 472.158 668.057 454 674.015C429.806 681.954 404.569 687.122 379 682.671C324.172 673.128 283.367 628.919 263.772 579C258.162 564.71 253.01 548.618 253 533L240 533z"/>
<path style="fill:#433580; stroke:none;" d="M258 562L262 576L263 576L258 562z"/>
<path style="fill:#cc9397; stroke:none;" d="M221 565L154 728L160.588 718L171.537 691L201.412 618L221 569L224 569C234.585 619.636 272.183 666.62 316 692.597C330.855 701.404 349.389 711.195 367 712C355.472 704.959 339.448 702.898 327 696.576C300.305 683.017 278.958 663.115 260.262 640C247.844 624.648 238.952 606.187 231.544 588C228.681 580.972 228.154 568.754 221 565z"/>
<path style="fill:#433580; stroke:none;" d="M263 577L264 581L265 581L263 577M265 582L266 586L267 586L265 582M231 587L233 590L231 587M267.333 587.667L267.667 588.333L267.333 587.667M268 589L272 597L268 589M233 590L234 595L235 595L233 590M235 595L237 602L238 602L235 595M272.333 597.667L272.667 598.333L272.333 597.667M273 599L276 604L273 599z"/>
<path style="fill:#cc9397; stroke:none;" d="M573 599C573.627 611.087 581.987 624 586.719 635C595.826 656.168 603.533 677.987 613 699C616.38 706.501 619.636 725.299 628 728C612.316 698.035 602.979 664.707 588.742 634C585.245 626.457 582.044 618.687 578.859 611C577.897 608.679 575.122 604.469 576.505 601.894C578.37 598.418 587.748 600 591 600C602.635 600 629.485 595.072 638.522 603.43C646.464 610.775 649.059 626.276 653.17 636C661.33 655.305 669.351 674.666 677.425 694C682.14 705.29 687.992 715.465 688 728C692.103 718.222 685.096 705.875 681.281 697C671.61 674.504 661.479 651.915 652.85 629C650.069 621.613 645.993 604.103 638.867 600.028C634.144 597.326 625.293 599 620 599L573 599z"/>
<path style="fill:#f42b0f; stroke:none;" d="M688 728C687.998 714.59 681.937 704.128 677.014 692C669.267 672.917 661.19 653.974 653.17 635C649.272 625.78 646.559 609.196 638.522 602.728C632.061 597.529 618.75 600 611 600L586 600C583.517 600 578.835 599.167 576.836 601.028C573.841 603.815 578.512 611.139 579.659 614C584.513 626.107 590.079 637.951 595.088 650C602.662 668.218 610.957 686.409 617.62 705C619.671 710.722 622.839 723.783 628.214 726.972C632.625 729.59 641.027 728 646 728L688 728z"/>
<path style="fill:#433580; stroke:none;" d="M238.333 603.667L238.667 604.333L238.333 603.667M276 604L276 607L277 607L276 604M239.333 605.667L239.667 606.333L239.333 605.667M240.333 607.667L240.667 608.333L240.333 607.667M277 607L279 610L277 607M241 609L242 610L241 609M242.333 610.667L242.667 611.333L242.333 610.667M279 610L281 613L279 610M243.333 612.667L243.667 613.333L243.333 612.667M520 618L530 614C525.4 610.913 521.923 613.309 520 618M281.333 613.667L281.667 614.333L281.333 613.667M244.333 614.667L244.667 615.333L244.333 614.667M531.667 614.333L532.333 614.667L531.667 614.333M282 615L284 618L282 615M533 615L538 618L538 617L533 615M245 617L250 624L245 617M284 618L285 619L284 618M519 618L515 626C517.789 623.79 519.962 621.672 519 618M538.667 618.333L539.333 618.667L538.667 618.333M285 619L286 620L285 619M540.667 619.333L541.333 619.667L540.667 619.333M542 620L542 621L546 622L546 621L542 620M286 621L291 627L286 621M546.667 622.333L547.333 622.667L546.667 622.333M548 623L551 626L549 632C552.083 628.706 552.895 624.626 548 623M250 624L252 627L250 624M514 626L513 628L515 628L514 626M252 627L253 631L254 631L252 627M291 627L292 628L291 627M292 628C293.461 632.394 295.593 635.369 300 637L292 628M512 629L510 632L512 629M254 631L255 632L254 631M509 632L506 637L509 632M548.333 632.667L548.667 633.333L548.333 632.667M255 633L256 634L255 633M256.333 634.667L256.667 635.333L256.333 634.667M547.333 634.667L547.667 635.333L547.333 634.667M257 636L258 637L257 636M546 636L543 642L544 642L546 636M258 637L259 638L258 637M300 637L303 641L300 637M505 637L501 643C503.819 641.585 505.675 640.288 505 637M259 638L262 642L259 638M303.667 641.333L304.333 641.667L303.667 641.333M262 642L263 643L262 642M305.333 642.667L305.667 643.333L305.333 642.667M542.333 642.667L542.667 643.333L542.333 642.667M263 643L264 644L263 643M500 643L498 646L500 643M306 644L314 651L306 644M541 644L542 645L541 644M264 645L268 649L264 645M540 645L541 646L540 645M497 646L498 647L497 646M539 646L533 655L539 646M496 647L486 656C490.005 654.462 496.106 651.858 496 647M268 649L269 650L268 649M269 650L273 655L269 650M314 651L321 656L321 655L314 651M273 655L278 660L273 655M532 655L533 656L532 655M321 656L322 657L321 656M478 660L478 661L486 656L478 660M531 656L532 657L531 656M322 657L328 661L328 660L322 657M530 657L531 658L530 657M529 658L530 659L529 658M528 659L529 660L528 659M278 660L278 662L280 662L278 660M526 660L524 664L528 660L526 660M328 661L336 666L328 661M469 665L469 666L478 661L469 665M280 662L283 665L280 662M523 664L524 665L523 664M283 665L290 671L283 665M518 669L523 665L518 669M336.667 666.333L337.333 666.667L336.667 666.333M462 669L462 670L469 666L462 669M338 667L339 668L338 667M339.667 668.333L340.333 668.667L339.667 668.333M341.667 669.333L342.333 669.667L341.667 669.333M514 673L518 669L514 673M343 670L355 675L355 674L343 670M460.667 670.333L461.333 670.667L460.667 670.333M290 671L291 672L290 671M458.667 671.333L459.333 671.667L458.667 671.333M291 672L292 673L291 672M449 674L449 675L458 673L449 674M292 673L293 674L292 673M513 673L514 674L513 673M293 674L299 679L293 674M506 679L513 675C509.552 674.196 507.751 676.158 506 679M357.667 675.333L358.333 675.667L357.667 675.333M441 677L441 678L448 676L441 677M359.667 676.333L360.333 676.667L359.667 676.333M362 677L362 678L371 680L371 679L362 677M433 679L433 680L440 679L433 679M299 679L302 681L299 679M505 679L506 680L505 679M372 680L372 681C390.314 686.806 413.469 684.823 432 681L414 681.996L372 680M504 680L505 681L504 680M302 681L305 683L302 681M502.667 681.333L503.333 681.667L502.667 681.333M501 682L502 683L501 682M305 683L306 684L305 683M499.667 683.333L500.333 683.667L499.667 683.333M306 684L307 685L306 684M496 686L499 685L496 686M307.667 685.333L308.333 685.667L307.667 685.333M310 686L311 687L310 686M495 686L496 687L495 686M311 687L312 688L311 687M493 687L494 688L493 687M313 688L316 690L313 688M490.667 688.333L491.333 688.667L490.667 688.333M484 693L490 690L484 693M316 690L321 693L321 692L316 690M321 693L321 694L325 695L321 693M478 694L478 695L483 694L478 694M325 695L326 696L325 695M476.667 695.333L477.333 695.667L476.667 695.333M326.667 696.333L327.333 696.667L326.667 696.333M475 696L476 697L475 696M328 697L328 698L331 698L328 697M473 697L474 698L473 697M331 698L331 699L335 700L335 699L331 698M470.667 698.333L471.333 698.667L470.667 698.333M468.667 699.333L469.333 699.667L468.667 699.333M335 700L337 702L337 700L335 700M464 702L467 700L464 702M339 702L339 703L353 707L353 706L339 702M459 702L459 703L462 703L459 702M457.667 703.333L458.333 703.667L457.667 703.333M439 708L439 709L457 705L439 708M354 707L354 708L359 709L354 707M360 709L360 710L364 710L360 709M434 709L434 710L438 710L434 709M364.667 710.333L365.333 710.667L364.667 710.333M431 710L431 711L434 711L431 710M367 711L367 712L374 712L367 711M426 711L426 712L431 712L426 711M376 712L376 713C390.191 715.635 408.809 715.635 423 713L408 713L376 712z"/>
<path style="fill:#cc9397; stroke:none;" d="M91 727L92 728L91 727z"/>
</svg>
